<svg width="235" height="217" xmlns="http://www.w3.org/2000/svg"><g fill="#FFF" fill-rule="evenodd"><path d="M8.94 48v-3.24l4.44-1.5V8.94H8.04L5.7 18.42H.6l.54-13.68h37.14l.54 13.68h-5.16L31.5 8.94h-5.4v34.32l4.44 1.5V48H8.94zm31.5-2.58l3.42-1.56V6.6l-3.6-1.44V2.52L53.28.6l1.38.18v17.7h.36c2.88-2.52 7.02-4.14 11.16-4.14 5.7 0 8.22 2.7 8.22 8.7v20.82l3.42 1.56V48h-17.4v-2.58l3.06-1.38v-19.2c0-3.3-1.44-4.62-4.14-4.62-1.8 0-3.24.42-4.5.96v22.86l3 1.38V48h-17.4v-2.58zm69.72-12.96h-19.5c.36 6.78 2.88 9.96 10.08 9.96 3.48 0 5.94-.72 8.28-1.92v3c-1.8 2.46-6.36 5.4-12.72 5.4-11.16 0-16.86-6.72-16.86-17.46 0-10.5 6.24-17.04 16.32-17.04 9.48 0 14.4 4.74 14.4 17.22v.84zM95.46 17.7c-3.06 0-4.98 3.36-4.98 11.46l9.3-.6c0-8.4-1.44-10.86-4.32-10.86zM.78 58.52L14.1 56.6l1.32.18V99.8l3.42 1.56V104H1.02v-2.64l3.42-1.56V62.54L.78 61.16v-2.64zm28.32-1.44c3.12 0 5.82 2.46 5.82 5.64 0 3.18-2.7 5.58-5.82 5.58-3.24 0-5.76-2.4-5.76-5.58s2.52-5.64 5.76-5.64zm-8.88 15.36l13.5-1.92 1.14.12v29.28l3.36 1.5V104H20.46v-2.58l3.42-1.5V76.46l-3.66-1.44v-2.58zm34.02 2.94l5.58 19.08h.24l6.12-19.08-3.54-1.56v-2.7h11.1v2.7l-2.64 1.5L61.08 104h-9.06l-9.9-28.62-2.82-1.56v-2.7h18.54v2.7l-3.6 1.56zm51.6 13.08h-19.5c.36 6.78 2.88 9.96 10.08 9.96 3.48 0 5.94-.72 8.28-1.92v3c-1.8 2.46-6.36 5.4-12.72 5.4-11.16 0-16.86-6.72-16.86-17.46 0-10.5 6.24-17.04 16.32-17.04 9.48 0 14.4 4.74 14.4 17.22v.84zM91.14 73.7c-3.06 0-4.98 3.36-4.98 11.46l9.3-.6c0-8.4-1.44-10.86-4.32-10.86zm33.66 8.7c6.9 1.68 9.84 4.74 9.84 10.92 0 7.32-4.38 11.46-14.16 11.46-3.84 0-8.04-.6-11.34-1.8l-.36-8.58h3.96l2.52 5.7c1.32.72 3.06 1.14 5.1 1.14 3.72 0 5.4-1.62 5.4-4.14 0-2.16-1.14-3.3-4.5-4.08l-2.22-.54c-7.02-1.74-10.26-5.1-10.26-11.22 0-6.42 4.26-10.98 13.62-10.98 3.84 0 7.56.42 10.08 1.38v8.04h-3.96l-1.74-5.16c-.96-.48-2.34-.72-4.14-.72-3.24 0-4.86 1.44-4.86 3.84 0 2.16 1.14 3.24 4.8 4.2l2.22.54zm36.84 22.38c-9.96 0-14.16-6.66-14.16-13.98 0-9.3 5.94-20.34 19.26-20.34 9.96 0 14.22 6.66 14.16 13.92-.06 9.3-5.88 20.4-19.26 20.4zm0-3.36c1.38 0 2.58-.84 3.72-2.64 2.64-4.62 4.68-15.42 4.68-20.58 0-2.88-.96-4.38-3.3-4.38-1.38 0-2.58.84-3.72 2.7-2.64 4.62-4.68 15.36-4.68 20.46 0 2.94 1.02 4.44 3.3 4.44zm33.6-.84c-2.04 10.8-7.62 16.86-16.2 16.86-3.84 0-6.96-1.62-6.96-5.04 0-2.34 1.8-4.02 4.02-4.02h1.38l1.5 4.68c.18.06.42.06.66.06 1.38 0 2.64-1.26 3.54-6.48 1.44-8.88 3.54-20.7 5.28-31.08h-3.9l.54-3.12 4.14-1.2c2.28-9.18 8.04-14.82 17.34-14.82 4.5 0 8.16 1.44 8.16 4.98 0 2.28-1.68 3.9-4.32 3.9h-1.38l-1.98-5.1h-.6c-2.88 0-4.68 4.62-6.06 10.92h6.42l-.9 4.44h-6.36c-1.26 7.02-3.06 17.7-4.32 25.02zM24.06 160.78c-13.98 0-22.86-6.48-22.86-22.14 0-16.68 11.04-22.62 23.34-22.62 5.22 0 10.14.84 12.9 1.98l.24 11.64h-5.04l-2.82-8.76c-1.2-.48-2.94-.78-5.1-.78-6.54 0-9.78 4.8-9.78 17.7 0 14.82 2.7 18.96 8.7 18.96 1.56 0 2.76-.24 3.6-.6v-12.54l-3.96-1.32v-3.24h18.36v3.24l-3.12 1.32v14.7c-3.24 1.26-8.7 2.46-14.46 2.46zm19.26-32.34l13.14-1.92 1.08.12v7.44h.3c1.74-5.4 4.5-7.92 8.28-7.92.6 0 1.26.06 1.62.24v9.9c-.6-.18-1.68-.24-2.7-.24-3 0-5.22.3-7.14 1.08v18.78l4.44 1.5V160H43.5v-2.58l3.42-1.5v-23.46l-3.6-1.44v-2.58zm56.76 16.02h-19.5c.36 6.78 2.88 9.96 10.08 9.96 3.48 0 5.94-.72 8.28-1.92v3c-1.8 2.46-6.36 5.4-12.72 5.4-11.16 0-16.86-6.72-16.86-17.46 0-10.5 6.24-17.04 16.32-17.04 9.48 0 14.4 4.74 14.4 17.22v.84zm-14.7-14.76c-3.06 0-4.98 3.36-4.98 11.46l9.3-.6c0-8.4-1.44-10.86-4.32-10.86zm17.16 27.66l3.42-1.56v-23.4l-3.6-1.44v-2.52l13.08-1.92 1.32.12v3.84h.36c2.82-2.52 7.02-4.14 11.16-4.14 5.7 0 8.22 2.7 8.22 8.7v20.76l3.42 1.56V160h-17.4v-2.64l3.06-1.38v-19.14c0-3.3-1.44-4.62-4.14-4.62-1.74 0-3.24.48-4.5 1.02v22.74l3 1.38V160h-17.4v-2.64zm53.4-1.5l4.26 1.56V160h-18.72v-2.58l3.48-1.56v-24.3h-3.66v-2.76l3.66-1.68v-3.36c0-8.16 6-11.22 13.02-11.22 2.82 0 4.92.12 8.1.66v8.94H162l-1.38-5.94c-.54-.24-1.02-.3-1.62-.3-2.1 0-3.06 1.2-3.06 4.86v6.36H162v4.44h-6.06v24.3zm38.76-11.4h-19.5c.36 6.78 2.88 9.96 10.08 9.96 3.48 0 5.94-.72 8.28-1.92v3c-1.8 2.46-6.36 5.4-12.72 5.4-11.16 0-16.86-6.72-16.86-17.46 0-10.5 6.24-17.04 16.32-17.04 9.48 0 14.4 4.74 14.4 17.22v.84zM180 129.7c-3.06 0-4.98 3.36-4.98 11.46l9.3-.6c0-8.4-1.44-10.86-4.32-10.86zm16.98-15.18l13.32-1.92 1.32.18v43.02l3.42 1.56V160h-17.82v-2.64l3.42-1.56v-37.26l-3.66-1.38v-2.64zm19.44 0l13.32-1.92 1.32.18v43.02l3.42 1.56V160h-17.82v-2.64l3.42-1.56v-37.26l-3.66-1.38v-2.64zM8.94 216v-3.24l4.44-1.5v-34.32H8.04l-2.34 9.48H.6l.54-13.68h37.14l.54 13.68h-5.16l-2.16-9.48h-5.4v34.32l4.44 1.5V216H8.94zm48.3.9c-10.02 0-16.86-6.78-16.86-17.46 0-10.56 6.72-17.1 16.8-17.1 10.08 0 16.92 6.54 16.92 17.16 0 10.68-6.72 17.4-16.86 17.4zm0-31.14c-3.18 0-5.04 2.76-5.04 13.74 0 11.04 1.86 13.92 5.1 13.92 3.18 0 4.98-2.94 4.98-13.98 0-10.98-1.74-13.68-5.04-13.68zm49.2-2.64l6.24 19.86h.42l3.78-15.6-2.94-1.56v-2.7h10.74v2.7l-2.82 1.56-7.98 28.62h-8.46l-5.4-17.58h-.24L94.8 216h-8.4l-8.28-28.62-2.88-1.56v-2.7h17.58v2.7l-2.94 1.56 3.72 15.48h.42l5.22-19.74h7.2zm50.34 17.34h-19.5c.36 6.78 2.88 9.96 10.08 9.96 3.48 0 5.94-.72 8.28-1.92v3c-1.8 2.46-6.36 5.4-12.72 5.4-11.16 0-16.86-6.72-16.86-17.46 0-10.5 6.24-17.04 16.32-17.04 9.48 0 14.4 4.74 14.4 17.22v.84zm-14.7-14.76c-3.06 0-4.98 3.36-4.98 11.46l9.3-.6c0-8.4-1.44-10.86-4.32-10.86zm16.98-1.26l13.14-1.92 1.08.12v7.44h.3c1.74-5.4 4.5-7.92 8.28-7.92.6 0 1.26.06 1.62.24v9.9c-.6-.18-1.68-.24-2.7-.24-3 0-5.22.3-7.14 1.08v18.78l4.44 1.5V216h-18.84v-2.58l3.42-1.5v-23.46l-3.6-1.44v-2.58z"/></g></svg>