<svg width="504" height="148" xmlns="http://www.w3.org/2000/svg"><g fill="#FFF" fill-rule="evenodd"><path d="M10.8 57v-1.224l5.328-1.08V6.456h-4.104L1.944 23.088H.72l.648-18h44.64l.576 18H45.36L35.568 6.456H31.32v48.24l5.328 1.08V57H10.8zm37.8-1.224l4.104-1.152V5.376l-4.32-1.728V2.424L64.008.12l1.656.216v21.672h.432c3.384-3.456 8.424-5.4 13.392-5.4 6.84 0 9.864 3.24 9.864 10.44v27.576l4.104 1.152V57h-20.88v-1.224l3.672-.936V27.768c0-3.888-1.728-5.616-5.112-5.616-2.088 0-3.744.504-5.256 1.296V54.84l3.6.936V57H48.6v-1.224zm83.664-19.872h-23.616c.504 9.72 3.6 15.696 13.68 15.696 3.312 0 6.12-.432 8.784-1.584v1.152c-2.232 3.384-7.704 6.912-15.552 6.912-13.32 0-20.16-8.064-20.16-20.952 0-12.6 7.488-20.448 19.584-20.448 12.168 0 17.28 6.48 17.28 18.216v1.008zm-17.568-17.856c-3.744 0-6.048 5.04-6.048 16.416l11.16-.504c0-12.384-1.656-15.912-5.112-15.912zm52.2 13.104c7.416 3.456 11.304 6.552 11.304 13.752 0 8.136-5.688 13.032-16.2 13.032-4.752 0-9.648-.576-13.464-2.016l-.432-11.664h1.224l10.296 12.024c.72.216 1.512.36 2.16.36 4.392 0 6.408-2.376 6.408-6.048 0-3.24-1.728-4.464-6.264-6.624l-2.376-1.08c-7.2-3.384-11.376-6.912-11.376-13.536 0-8.064 5.616-12.816 15.264-12.816 3.96 0 8.28.36 11.592 1.296l.36 10.872h-1.224l-7.848-10.512a8.061 8.061 0 0 0-2.52-.432c-3.888 0-5.616 2.232-5.616 5.472 0 3.528 1.656 4.68 6.48 6.912l2.232 1.008zm18.936-10.872h-5.616v-1.296l5.616-1.44v-7.056L198.936 8.4v9.144h8.712v2.736h-8.712v26.208c0 4.032 1.224 5.688 5.544 5.688 1.368 0 2.736-.144 3.6-.36v1.224c-2.304 2.448-6.264 4.752-10.944 4.752-7.488 0-11.304-3.456-11.304-11.952V20.28zm45 37.8c-12.024 0-20.232-8.136-20.232-20.952 0-12.672 8.064-20.52 20.16-20.52s20.304 7.848 20.304 20.592c0 12.816-8.064 20.88-20.232 20.88zm0-40.176c-3.96 0-6.048 3.816-6.048 19.296 0 15.552 2.088 19.584 6.12 19.584 3.96 0 5.976-4.104 5.976-19.656 0-15.48-1.944-19.224-6.048-19.224zm22.248 1.224l15.912-2.304 1.296.144V28.2h.36c2.016-8.568 5.328-11.808 9.792-11.808.72 0 1.512.072 1.944.288v11.88c-.72-.216-2.016-.288-3.24-.288-3.6 0-6.264.36-8.568 1.296v25.128l5.328 1.08V57h-22.608v-1.224l4.104-1.08V22.08l-4.32-1.728v-1.224zM294.624.696c3.744 0 6.984 2.952 6.984 6.768s-3.24 6.696-6.984 6.696c-3.888 0-6.912-2.88-6.912-6.696s3.024-6.768 6.912-6.768zm-10.656 18.432l15.768-2.304 1.8.144v37.656l4.032 1.152V57h-21.312v-1.224l4.104-1.152V22.08l-4.392-1.728v-1.224zm60.768 16.776H321.12c.504 9.72 3.6 15.696 13.68 15.696 3.312 0 6.12-.432 8.784-1.584v1.152c-2.232 3.384-7.704 6.912-15.552 6.912-13.32 0-20.16-8.064-20.16-20.952 0-12.6 7.488-20.448 19.584-20.448 12.168 0 17.28 6.48 17.28 18.216v1.008zm-17.568-17.856c-3.744 0-6.048 5.04-6.048 16.416l11.16-.504c0-12.384-1.656-15.912-5.112-15.912zm39.96 13.104c7.416 3.456 11.304 6.552 11.304 13.752 0 8.136-5.688 13.032-16.2 13.032-4.752 0-9.648-.576-13.464-2.016l-.432-11.664h1.224l10.296 12.024c.72.216 1.512.36 2.16.36 4.392 0 6.408-2.376 6.408-6.048 0-3.24-1.728-4.464-6.264-6.624l-2.376-1.08c-7.2-3.384-11.376-6.912-11.376-13.536 0-8.064 5.616-12.816 15.264-12.816 3.96 0 8.28.36 11.592 1.296l.36 10.872H374.4l-7.848-10.512a8.061 8.061 0 0 0-2.52-.432c-3.888 0-5.616 2.232-5.616 5.472 0 3.528 1.656 4.68 6.48 6.912l2.232 1.008zM158.36 131.936c-11.952 0-16.992-7.992-16.992-16.776 0-11.16 7.128-24.408 23.112-24.408 11.952 0 17.064 7.992 16.992 16.704-.072 11.16-7.056 24.48-23.112 24.48zm0-4.032c1.656 0 3.096-1.008 4.464-3.168 3.168-5.544 5.616-18.504 5.616-24.696 0-3.456-1.152-5.256-3.96-5.256-1.656 0-3.096 1.008-4.464 3.24-3.168 5.544-5.616 18.432-5.616 24.552 0 3.528 1.224 5.328 3.96 5.328zm40.32-1.008c-2.448 12.96-9.144 20.232-19.44 20.232-4.608 0-8.352-1.944-8.352-6.048 0-2.808 2.16-4.824 4.824-4.824h1.656l1.8 5.616c.216.072.504.072.792.072 1.656 0 3.168-1.512 4.248-7.776 1.728-10.656 4.248-24.84 6.336-37.296h-4.68l.648-3.744 4.968-1.44c2.736-11.016 9.648-17.784 20.808-17.784 5.4 0 9.792 1.728 9.792 5.976 0 2.736-2.016 4.68-5.184 4.68h-1.656l-2.376-6.12h-.72c-3.456 0-5.616 5.544-7.272 13.104h7.704l-1.08 5.328h-7.632c-1.512 8.424-3.672 21.24-5.184 30.024zm51.84 5.04c-16.776 0-27.432-7.776-27.432-26.568 0-20.016 13.248-27.144 28.008-27.144 6.696 0 12.456.864 15.48 2.16l.576 15.408h-1.224L255.272 80.24c-1.224-.648-2.52-.792-3.888-.792-7.344 0-11.808 6.696-11.808 24.912 0 20.304 3.24 26.352 10.656 26.352 1.656 0 3.096-.36 4.104-1.08V107.96l-4.752-.864v-1.224h22.032v1.224l-3.744.864v21.024c-3.888 1.512-10.44 2.952-17.352 2.952zm23.112-38.808l15.912-2.304 1.296.144V102.2h.36c2.016-8.568 5.328-11.808 9.792-11.808.72 0 1.512.072 1.944.288v11.88c-.72-.216-2.016-.288-3.24-.288-3.6 0-6.264.36-8.568 1.296v25.128l5.328 1.08V131h-22.608v-1.224l4.104-1.08V96.08l-4.32-1.728v-1.224zm68.112 16.776h-23.616c.504 9.72 3.6 15.696 13.68 15.696 3.312 0 6.12-.432 8.784-1.584v1.152c-2.232 3.384-7.704 6.912-15.552 6.912-13.32 0-20.16-8.064-20.16-20.952 0-12.6 7.488-20.448 19.584-20.448 12.168 0 17.28 6.48 17.28 18.216v1.008zm-17.568-17.856c-3.744 0-6.048 5.04-6.048 16.416l11.16-.504c0-12.384-1.656-15.912-5.112-15.912zm20.52 37.728l4.104-1.152V96.08l-4.32-1.728v-1.224l15.696-2.304 1.584.144v5.04h.432c3.384-3.456 8.424-5.4 13.392-5.4 6.84 0 9.864 3.24 9.864 10.44v27.576l4.104 1.152V131h-20.88v-1.224l3.672-.936v-27.072c0-3.888-1.728-5.616-5.112-5.616-2.088 0-3.744.504-5.256 1.296v31.392l3.6.936V131h-20.88v-1.224zm64.08-1.152l5.112 1.152V131h-22.464v-1.224l4.176-1.152V94.28h-4.392v-1.296l4.392-1.44v-4.032c0-9.792 7.2-13.464 15.624-13.464 3.384 0 5.76.144 9.504.72l.216 11.736h-1.224l-6.984-11.088c-2.808 0-3.96 2.088-3.96 9v7.128h7.272v2.736h-7.272v34.344zm46.512-18.72h-23.616c.504 9.72 3.6 15.696 13.68 15.696 3.312 0 6.12-.432 8.784-1.584v1.152c-2.232 3.384-7.704 6.912-15.552 6.912-13.32 0-20.16-8.064-20.16-20.952 0-12.6 7.488-20.448 19.584-20.448 12.168 0 17.28 6.48 17.28 18.216v1.008zM437.72 92.048c-3.744 0-6.048 5.04-6.048 16.416l11.16-.504c0-12.384-1.656-15.912-5.112-15.912zm20.304-15.624l15.984-2.304 1.584.216v54.288l4.104 1.152V131h-21.384v-1.224l4.104-1.152v-49.32l-4.392-1.656v-1.224zm23.328 0l15.984-2.304 1.584.216v54.288l4.104 1.152V131H481.64v-1.224l4.104-1.152v-49.32l-4.392-1.656v-1.224z"/></g></svg>