<svg width="518" height="124" xmlns="http://www.w3.org/2000/svg"><g fill="#FFF" fill-rule="evenodd"><path d="M31.872 122.936c-16.776 0-27.432-7.776-27.432-26.568 0-20.016 13.248-27.144 28.008-27.144 6.264 0 12.168 1.008 15.48 2.376l.288 13.968h-6.048l-3.384-10.512c-1.44-.576-3.528-.936-6.12-.936-7.848 0-11.736 5.76-11.736 21.24 0 17.784 3.24 22.752 10.44 22.752 1.872 0 3.312-.288 4.32-.72v-15.048l-4.752-1.584v-3.888h22.032v3.888l-3.744 1.584v17.64c-3.888 1.512-10.44 2.952-17.352 2.952zm23.112-38.808l15.768-2.304 1.296.144v8.928h.36c2.088-6.48 5.4-9.504 9.936-9.504.72 0 1.512.072 1.944.288v11.88c-.72-.216-2.016-.288-3.24-.288-3.6 0-6.264.36-8.568 1.296v22.536l5.328 1.8V122H55.2v-3.096l4.104-1.8V88.952l-4.32-1.728v-3.096zm68.112 19.224h-23.4c.432 8.136 3.456 11.952 12.096 11.952 4.176 0 7.128-.864 9.936-2.304v3.6c-2.16 2.952-7.632 6.48-15.264 6.48-13.392 0-20.232-8.064-20.232-20.952 0-12.6 7.488-20.448 19.584-20.448 11.376 0 17.28 5.688 17.28 20.664v1.008zm-17.64-17.712c-3.672 0-5.976 4.032-5.976 13.752l11.16-.72c0-10.08-1.728-13.032-5.184-13.032zm20.592 33.192l4.104-1.872V88.88l-4.32-1.728v-3.024l15.696-2.304 1.584.144v4.608h.432c3.384-3.024 8.424-4.968 13.392-4.968 6.84 0 9.864 3.24 9.864 10.44v24.912l4.104 1.872V122h-20.88v-3.168l3.672-1.656V94.208c0-3.96-1.728-5.544-4.968-5.544-2.088 0-3.888.576-5.4 1.224v27.288l3.6 1.656V122h-20.88v-3.168zm64.08-1.8l5.112 1.872V122h-22.464v-3.096l4.176-1.872v-29.16h-4.392V84.56l4.392-2.016v-4.032c0-9.792 7.2-13.464 15.624-13.464 3.384 0 5.904.144 9.72.792v10.728H197.4l-1.656-7.128c-.648-.288-1.224-.36-1.944-.36-2.52 0-3.672 1.44-3.672 5.832v7.632h7.272v5.328h-7.272v29.16zm46.512-13.68h-23.4c.432 8.136 3.456 11.952 12.096 11.952 4.176 0 7.128-.864 9.936-2.304v3.6c-2.16 2.952-7.632 6.48-15.264 6.48-13.392 0-20.232-8.064-20.232-20.952 0-12.6 7.488-20.448 19.584-20.448 11.376 0 17.28 5.688 17.28 20.664v1.008zM219 85.64c-3.672 0-5.976 4.032-5.976 13.752l11.16-.72c0-10.08-1.728-13.032-5.184-13.032zm20.376-18.216l15.984-2.304 1.584.216v51.624l4.104 1.872V122h-21.384v-3.168l4.104-1.872V72.248l-4.392-1.656v-3.168zm23.328 0l15.984-2.304 1.584.216v51.624l4.104 1.872V122h-21.384v-3.168l4.104-1.872V72.248l-4.392-1.656v-3.168zM308.352 122v-3.888l5.328-1.8V75.128h-6.408l-2.808 11.376h-6.12l.648-16.416h44.568l.648 16.416h-6.192l-2.592-11.376h-6.48v41.184l5.328 1.8V122h-25.92zm57.96 1.08c-12.024 0-20.232-8.136-20.232-20.952 0-12.672 8.064-20.52 20.16-20.52s20.304 7.848 20.304 20.592c0 12.816-8.064 20.88-20.232 20.88zm0-37.368c-3.816 0-6.048 3.312-6.048 16.488 0 13.248 2.232 16.704 6.12 16.704 3.816 0 5.976-3.528 5.976-16.776 0-13.176-2.088-16.416-6.048-16.416zm59.04-3.168l7.488 23.832h.504l4.536-18.72-3.528-1.872v-3.24h12.888v3.24l-3.384 1.872L434.28 122h-10.152l-6.48-21.096h-.288L411.384 122h-10.08l-9.936-34.344-3.456-1.872v-3.24h21.096v3.24l-3.528 1.872 4.464 18.576h.504l6.264-23.688h8.64zm60.408 20.808h-23.4c.432 8.136 3.456 11.952 12.096 11.952 4.176 0 7.128-.864 9.936-2.304v3.6c-2.16 2.952-7.632 6.48-15.264 6.48-13.392 0-20.232-8.064-20.232-20.952 0-12.6 7.488-20.448 19.584-20.448 11.376 0 17.28 5.688 17.28 20.664v1.008zM468.12 85.64c-3.672 0-5.976 4.032-5.976 13.752l11.16-.72c0-10.08-1.728-13.032-5.184-13.032zm20.376-1.512l15.768-2.304 1.296.144v8.928h.36c2.088-6.48 5.4-9.504 9.936-9.504.72 0 1.512.072 1.944.288v11.88c-.72-.216-2.016-.288-3.24-.288-3.6 0-6.264.36-8.568 1.296v22.536l5.328 1.8V122h-22.608v-3.096l4.104-1.8V88.952l-4.32-1.728v-3.096zM10.728 58v-3.888l5.328-1.8V11.128H9.648L6.84 22.504H.72l.648-16.416h44.568l.648 16.416h-6.192L37.8 11.128h-6.48v41.184l5.328 1.8V58h-25.92zm37.8-3.096l4.104-1.872V8.32l-4.32-1.728V3.424L63.936 1.12l1.656.216v21.24h.432c3.456-3.024 8.424-4.968 13.392-4.968 6.84 0 9.864 3.24 9.864 10.44v24.984l4.104 1.872V58h-20.88v-3.096l3.672-1.656v-23.04c0-3.96-1.728-5.544-4.968-5.544-2.16 0-3.888.504-5.4 1.152v27.432l3.6 1.656V58h-20.88v-3.096zm83.664-15.552h-23.4c.432 8.136 3.456 11.952 12.096 11.952 4.176 0 7.128-.864 9.936-2.304v3.6c-2.16 2.952-7.632 6.48-15.264 6.48-13.392 0-20.232-8.064-20.232-20.952 0-12.6 7.488-20.448 19.584-20.448 11.376 0 17.28 5.688 17.28 20.664v1.008zm-17.64-17.712c-3.672 0-5.976 4.032-5.976 13.752l11.16-.72c0-10.08-1.728-13.032-5.184-13.032zm32.904-18.216L163.44 1.12l1.584.216V52.96l4.104 1.872V58h-21.384v-3.168l4.104-1.872V8.248l-4.392-1.656V3.424zm33.984-1.728c3.744 0 6.984 2.952 6.984 6.768s-3.24 6.696-6.984 6.696c-3.888 0-6.912-2.88-6.912-6.696s3.024-6.768 6.912-6.768zm-10.656 18.432l16.2-2.304 1.368.144v35.136l4.032 1.8V58h-21.312v-3.096l4.104-1.8V24.952l-4.392-1.728v-3.096zm40.824 3.528l6.696 22.896h.288l7.344-22.896-4.248-1.872v-3.24h13.32v3.24l-3.168 1.8L219.816 58h-10.872l-11.88-34.344-3.384-1.872v-3.24h22.248v3.24l-4.32 1.872zm61.92 15.696h-23.4c.432 8.136 3.456 11.952 12.096 11.952 4.176 0 7.128-.864 9.936-2.304v3.6c-2.16 2.952-7.632 6.48-15.264 6.48-13.392 0-20.232-8.064-20.232-20.952 0-12.6 7.488-20.448 19.584-20.448 11.376 0 17.28 5.688 17.28 20.664v1.008zm-17.64-17.712c-3.672 0-5.976 4.032-5.976 13.752l11.16-.72c0-10.08-1.728-13.032-5.184-13.032zm40.392 10.44c8.28 2.016 11.808 5.688 11.808 13.104 0 8.784-5.256 13.752-16.992 13.752-4.608 0-9.648-.72-13.608-2.16l-.432-10.296h4.752l3.024 6.84c1.584.864 3.672 1.368 6.12 1.368 4.464 0 6.48-1.944 6.48-4.968 0-2.592-1.368-3.96-5.4-4.896l-2.664-.648c-8.424-2.088-12.312-6.12-12.312-13.464 0-7.704 5.112-13.176 16.344-13.176 4.608 0 9.072.504 12.096 1.656v9.648h-4.752l-2.088-6.192c-1.152-.576-2.808-.864-4.968-.864-3.888 0-5.832 1.728-5.832 4.608 0 2.592 1.368 3.888 5.76 5.04l2.664.648zm43.92 26.856c-11.952 0-16.992-7.992-16.992-16.776 0-11.16 7.128-24.408 23.112-24.408 11.952 0 17.064 7.992 16.992 16.704-.072 11.16-7.056 24.48-23.112 24.48zm0-4.032c1.656 0 3.096-1.008 4.464-3.168 3.168-5.544 5.616-18.504 5.616-24.696 0-3.456-1.152-5.256-3.96-5.256-1.656 0-3.096 1.008-4.464 3.24-3.168 5.544-5.616 18.432-5.616 24.552 0 3.528 1.224 5.328 3.96 5.328zm40.32-1.008c-2.448 12.96-9.144 20.232-19.44 20.232-4.608 0-8.352-1.944-8.352-6.048 0-2.808 2.16-4.824 4.824-4.824h1.656l1.8 5.616c.216.072.504.072.792.072 1.656 0 3.168-1.512 4.248-7.776 1.728-10.656 4.248-24.84 6.336-37.296h-4.68l.648-3.744 4.968-1.44C376.056 7.672 382.968.904 394.128.904c5.4 0 9.792 1.728 9.792 5.976 0 2.736-2.016 4.68-5.184 4.68h-1.656l-2.376-6.12h-.72c-3.456 0-5.616 5.544-7.272 13.104h7.704l-1.08 5.328h-7.632c-1.512 8.424-3.672 21.24-5.184 30.024z"/></g></svg>