<?xml version="1.0" encoding="utf-8"?>
<!-- Generator: Adobe Illustrator 20.1.0, SVG Export Plug-In . SVG Version: 6.00 Build 0)  -->
<svg version="1.1" id="Layer_1" xmlns="http://www.w3.org/2000/svg" xmlns:xlink="http://www.w3.org/1999/xlink" x="0px" y="0px"
	 viewBox="0 0 310 94" style="enable-background:new 0 0 310 94;" xml:space="preserve">
<style type="text/css">
	.st0{fill:#121212;}
</style>
<g id="Page-1">
	<g id="Group">
		<path id="Headline" class="st0" d="M7.4,38.1v-2.3l3.2-1.1V10.1H6.7l-1.7,6.8H1.4L1.8,7h26.6l0.4,9.8h-3.7l-1.5-6.8h-3.9v24.6
			l3.2,1.1v2.3H7.4z M30,37.3l2.5-0.7V7.2l-2.6-1V5.5l9.3-1.4l1,0.1v13h0.3c2-2.1,5-3.2,8-3.2c4.1,0,5.9,1.9,5.9,6.2v16.5l2.5,0.7
			v0.7H44.3v-0.7l2.2-0.6V20.6c0-2.3-1-3.4-3.1-3.4c-1.2,0-2.2,0.3-3.1,0.8v18.7l2.2,0.6v0.7H30V37.3z M80,26.9H66
			c0.3,4.9,2.1,7.1,7.2,7.1c2.5,0,4.3-0.5,5.9-1.4v2.2c-1.3,1.8-4.6,3.9-9.1,3.9c-8,0-12.1-4.8-12.1-12.5C58,18.7,62.4,14,69.7,14
			C76.5,14,80,17.4,80,26.3V26.9z M69.4,16.3c-2.2,0-3.6,2.4-3.6,8.2l6.7-0.4C72.5,18.1,71.5,16.3,69.4,16.3z M102.6,22.6
			c4.6,2.1,7.1,3.9,7.1,8.2c0,4.9-3.5,7.8-10,7.8c-2.9,0-5.9-0.4-8.3-1.2l-0.3-6.2h0.7l6,6.4c0.5,0.1,1.1,0.2,1.7,0.2
			c2.8,0,4.1-1.5,4.1-3.6c0-1.9-1.1-2.6-3.9-3.9l-1.5-0.6c-4.5-2-7.1-4.1-7.1-8.1c0-4.8,3.4-7.7,9.4-7.7c2.5,0,5.2,0.3,7.3,0.9v5.6
			h-0.7l-4.4-5.5c-0.6-0.2-1.3-0.2-1.9-0.2c-2.3,0-3.7,1.3-3.7,3.2c0,2,1,2.7,4,4L102.6,22.6z M95.7,36.9c0.2,0.1,0.4,0.2,0.6,0.3
			L95.7,36.9z M114.2,16h-3.4v-0.7l3.4-0.9v-4.1L122,9v5.5h5.2V16H122v15.8c0,2.4,0.7,3.4,3.3,3.4c0.8,0,1.6-0.1,2.2-0.2v0.7
			c-1.4,1.5-3.7,2.8-6.5,2.8c-4.5,0-6.8-2.1-6.8-7.1V16z M141.1,38.7c-7.2,0-12.1-4.9-12.1-12.5c0-7.6,4.8-12.3,12-12.3
			c7.2,0,12.1,4.7,12.1,12.3C153.2,33.9,148.4,38.7,141.1,38.7z M141.1,14.8c-2.4,0-3.6,2.3-3.6,11.4c0,9.2,1.2,11.6,3.7,11.6
			c2.4,0,3.6-2.5,3.6-11.7C144.7,17,143.5,14.8,141.1,14.8z M154.4,15.4l9.5-1.4l0.8,0.1v6.7h0.2c1.2-5.1,3.2-7,5.9-7
			c0.4,0,0.9,0,1.2,0.2v7.1c-0.4-0.1-1.2-0.2-1.9-0.2c-2.2,0-3.7,0.2-5.1,0.8v15l3.2,0.6v0.7h-13.5v-0.7l2.5-0.6V17.2l-2.6-1V15.4z
			 M179.2,4.4c2.2,0,4.2,1.8,4.2,4s-1.9,4-4.2,4c-2.3,0-4.1-1.7-4.1-4S176.9,4.4,179.2,4.4z M172.9,15.4l9.7-1.4l0.8,0.1v21l2.4,1.1
			v1.9H173v-1.9l2.5-1.1V18.3l-2.6-1V15.4z M209.2,26.9h-14c0.3,4.9,2.1,7.1,7.2,7.1c2.5,0,4.3-0.5,5.9-1.4v2.2
			c-1.3,1.8-4.6,3.9-9.1,3.9c-8,0-12.1-4.8-12.1-12.5c0-7.5,4.5-12.2,11.7-12.2c6.8,0,10.3,3.4,10.3,12.4V26.9z M198.6,16.3
			c-2.2,0-3.6,2.4-3.6,8.2l6.7-0.4C201.7,18.1,200.7,16.3,198.6,16.3z M222.8,22.6c4.6,2.1,7.1,3.9,7.1,8.2c0,4.9-3.5,7.8-10,7.8
			c-2.9,0-5.9-0.4-8.3-1.2l-0.3-6.2h0.7l6,6.4c0.5,0.1,1.1,0.2,1.7,0.2c2.8,0,4.1-1.5,4.1-3.6c0-1.9-1.1-2.6-3.9-3.9l-1.5-0.6
			c-4.5-2-7.1-4.1-7.1-8.1c0-4.8,3.4-7.7,9.4-7.7c2.5,0,5.2,0.3,7.3,0.9v5.6h-0.7l-4.4-5.5c-0.6-0.2-1.3-0.2-1.9-0.2
			c-2.3,0-3.7,1.3-3.7,3.2c0,2,1,2.7,4,4L222.8,22.6z M215.9,36.9c0.2,0.1,0.4,0.2,0.6,0.3L215.9,36.9z"/>
		<path id="of-Grenfell" class="st0" d="M96.2,81.7c-7.1,0-10.2-4.8-10.2-10c0-6.7,4.3-14.6,13.8-14.6c7.1,0,10.2,4.8,10.2,10
			C110,73.7,105.8,81.7,96.2,81.7z M96.2,79.3c1,0,1.9-0.6,2.7-1.9c1.9-3.3,3.4-11.1,3.4-14.8c0-2.1-0.7-3.1-2.4-3.1
			c-1,0-1.9,0.6-2.7,1.9c-1.9,3.3-3.4,11-3.4,14.7C93.9,78.2,94.6,79.3,96.2,79.3z M120.3,78.7c-1.5,7.7-5.5,12.1-11.6,12.1
			c-2.8,0-5-1.2-5-3.6c0-1.7,1.3-2.9,2.9-2.9h1l1.1,3.4c0.1,0,0.3,0,0.5,0c1,0,1.9-0.9,2.5-4.6c1-6.4,2.5-14.8,3.8-22.3h-2.8
			l0.4-2.2l3-0.9c1.6-6.6,5.8-10.6,12.4-10.6c3.2,0,5.9,1,5.9,3.6c0,1.6-1.2,2.8-3.1,2.8h-1l-1.4-3.7h-0.4c-2.1,0-3.4,3.3-4.3,7.8
			h4.6l-0.6,3.2h-4.6C122.5,65.7,121.2,73.4,120.3,78.7z M151.3,81.7c-10,0-16.4-4.6-16.4-15.9c0-12,7.9-16.2,16.7-16.2
			c3.7,0,7.3,0.6,9.3,1.4l0.2,8.3h-3.6l-2-6.3c-0.9-0.3-2.1-0.6-3.7-0.6c-4.7,0-7,3.4-7,12.7c0,10.6,1.9,13.6,6.2,13.6
			c1.1,0,2-0.2,2.6-0.4v-9l-2.8-0.9v-2.3h13.2v2.3l-2.2,0.9v10.5C159.4,80.8,155.4,81.7,151.3,81.7z M165.1,58.5l9.5-1.4l0.8,0.1
			v6.7h0.2c1.2-5.1,3.2-7,5.9-7c0.4,0,0.9,0,1.2,0.2v7.1c-0.4-0.1-1.2-0.2-1.9-0.2c-2.2,0-3.7,0.2-5.1,0.8v15l3.2,0.6v0.7h-13.5
			v-0.7l2.5-0.6V60.2l-2.6-1V58.5z M205.8,70h-14c0.3,4.9,2.1,7.1,7.2,7.1c2.5,0,4.3-0.5,5.9-1.4v2.2c-1.3,1.8-4.6,3.9-9.1,3.9
			c-8,0-12.1-4.8-12.1-12.5c0-7.5,4.5-12.2,11.7-12.2c6.8,0,10.3,3.4,10.3,12.4V70z M195.3,59.4c-2.2,0-3.6,2.4-3.6,8.2l6.7-0.4
			C198.4,61.1,197.4,59.4,195.3,59.4z M207.6,80.4l2.5-0.7V60.2l-2.6-1v-0.7l9.4-1.4l0.9,0.1v3h0.3c2-2.1,5-3.2,8-3.2
			c4.1,0,5.9,1.9,5.9,6.2v16.5l2.5,0.7v0.7h-12.5v-0.7l2.2-0.6V63.6c0-2.3-1-3.4-3.1-3.4c-1.2,0-2.2,0.3-3.1,0.8v18.7l2.2,0.6v0.7
			h-12.5V80.4z M245.9,78.1l3.1,1.1v1.9h-13.4v-1.9l2.5-1.1V60.7h-2.6v-2l2.6-1.2v-2.4c0-5.9,4.3-8,9.3-8c2,0,3.5,0.1,5.8,0.5V54
			h-2.9l-1-4.3c-0.4-0.2-0.7-0.2-1.2-0.2c-1.5,0-2.2,0.9-2.2,3.5v4.6h4.3v3.2h-4.3V78.1z M273.7,70h-14c0.3,4.9,2.1,7.1,7.2,7.1
			c2.5,0,4.3-0.5,5.9-1.4v2.2c-1.3,1.8-4.6,3.9-9.1,3.9c-8,0-12.1-4.8-12.1-12.5c0-7.5,4.5-12.2,11.7-12.2c6.8,0,10.3,3.4,10.3,12.4
			V70z M263.2,59.4c-2.2,0-3.6,2.4-3.6,8.2l6.7-0.4C266.3,61.1,265.2,59.4,263.2,59.4z M275.3,48.5l9.6-1.4l0.9,0.1v32.4l2.5,0.7
			v0.7h-12.8v-0.7l2.5-0.7V50.2l-2.6-1V48.5z M289.3,48.5l9.6-1.4l0.9,0.1v32.4l2.5,0.7v0.7h-12.8v-0.7l2.5-0.7V50.2l-2.6-1V48.5z"
			/>
	</g>
</g>
</svg>
