<?xml version="1.0" encoding="UTF-8"?>
<svg width="337px" height="120px" viewBox="0 0 337 120" version="1.1" xmlns="http://www.w3.org/2000/svg" xmlns:xlink="http://www.w3.org/1999/xlink">
    <!-- Generator: Sketch 49.3 (51167) - http://www.bohemiancoding.com/sketch -->
   
    <g id="Page-1" stroke="none" stroke-width="1" fill="none" fill-rule="evenodd">
        <g id="Group" fill="#121212">
            <path d="M7.2,60 L7.2,57.408 L10.752,56.208 L10.752,28.752 L6.432,28.752 L4.56,36.336 L0.48,36.336 L0.912,25.392 L30.624,25.392 L31.056,36.336 L26.928,36.336 L25.2,28.752 L20.832,28.752 L20.832,56.208 L24.384,57.408 L24.384,60 L7.2,60 Z M32.352,59.184 L35.088,58.416 L35.088,25.584 L32.208,24.432 L32.208,23.616 L42.624,22.08 L43.728,22.224 L43.728,36.672 L44.016,36.672 C46.272,34.368 49.632,33.072 52.944,33.072 C57.504,33.072 59.52,35.232 59.52,40.032 L59.52,58.416 L62.256,59.184 L62.256,60 L48.336,60 L48.336,59.184 L50.784,58.56 L50.784,40.512 C50.784,37.92 49.632,36.768 47.376,36.768 C45.984,36.768 44.88,37.152 43.872,37.68 L43.872,58.56 L46.272,59.184 L46.272,60 L32.352,60 L32.352,59.184 Z M88.128,47.568 L72.528,47.568 C72.816,52.992 74.832,55.536 80.592,55.536 C83.376,55.536 85.344,54.96 87.216,54 L87.216,56.4 C85.776,58.368 82.128,60.72 77.04,60.72 C68.112,60.72 63.552,55.344 63.552,46.752 C63.552,38.352 68.544,33.12 76.608,33.12 C84.192,33.12 88.128,36.912 88.128,46.896 L88.128,47.568 Z M76.368,35.76 C73.92,35.76 72.384,38.448 72.384,44.928 L79.824,44.448 C79.824,37.728 78.672,35.76 76.368,35.76 Z M113.328,42.768 C118.512,45.072 121.2,47.136 121.2,51.936 C121.2,57.36 117.312,60.624 110.064,60.624 C106.8,60.624 103.488,60.192 100.848,59.232 L100.56,52.32 L101.376,52.32 L108.048,59.472 C108.624,59.616 109.296,59.664 109.92,59.664 C113.04,59.664 114.528,58.032 114.528,55.68 C114.528,53.568 113.328,52.752 110.16,51.312 L108.528,50.592 C103.488,48.336 100.608,45.984 100.608,41.568 C100.608,36.192 104.448,33.024 111.12,33.024 C113.856,33.024 116.928,33.36 119.232,34.032 L119.232,40.32 L118.416,40.32 L113.52,34.224 C112.848,34.032 112.08,33.984 111.36,33.984 C108.768,33.984 107.28,35.424 107.28,37.584 C107.28,39.84 108.432,40.608 111.792,42.096 L113.328,42.768 Z M105.696,58.656 C105.888,58.752 106.128,58.896 106.368,58.992 L105.696,58.656 Z M126.288,35.376 L122.544,35.376 L122.544,34.56 L126.288,33.6 L126.288,28.992 L135.024,27.6 L135.024,33.696 L140.832,33.696 L140.832,35.376 L135.024,35.376 L135.024,52.992 C135.024,55.68 135.84,56.784 138.72,56.784 C139.632,56.784 140.544,56.688 141.12,56.544 L141.12,57.36 C139.584,58.992 136.944,60.528 133.824,60.528 C128.832,60.528 126.288,58.224 126.288,52.56 L126.288,35.376 Z M156.288,60.72 C148.272,60.72 142.8,55.296 142.8,46.752 C142.8,38.304 148.176,33.072 156.24,33.072 C164.304,33.072 169.776,38.304 169.776,46.8 C169.776,55.344 164.4,60.72 156.288,60.72 Z M156.288,34.032 C153.648,34.032 152.256,36.576 152.256,46.8 C152.256,57.072 153.648,59.76 156.336,59.76 C158.976,59.76 160.32,57.024 160.32,46.752 C160.32,36.528 159.024,34.032 156.288,34.032 Z M171.12,34.752 L181.728,33.216 L182.592,33.312 L182.592,40.752 L182.832,40.752 C184.176,35.04 186.384,32.928 189.36,32.928 C189.84,32.928 190.368,32.976 190.656,33.12 L190.656,41.04 C190.176,40.896 189.312,40.848 188.496,40.848 C186.096,40.848 184.32,41.088 182.784,41.712 L182.784,58.464 L186.336,59.184 L186.336,60 L171.264,60 L171.264,59.184 L174,58.464 L174,36.72 L171.12,35.568 L171.12,34.752 Z M198.816,22.464 C201.312,22.464 203.472,24.432 203.472,26.976 C203.472,29.52 201.312,31.44 198.816,31.44 C196.224,31.44 194.208,29.52 194.208,26.976 C194.208,24.432 196.224,22.464 198.816,22.464 Z M191.712,34.752 L202.512,33.216 L203.424,33.312 L203.424,56.736 L206.112,57.936 L206.112,60 L191.904,60 L191.904,57.936 L194.64,56.736 L194.64,37.968 L191.712,36.816 L191.712,34.752 Z M232.224,47.568 L216.624,47.568 C216.912,52.992 218.928,55.536 224.688,55.536 C227.472,55.536 229.44,54.96 231.312,54 L231.312,56.4 C229.872,58.368 226.224,60.72 221.136,60.72 C212.208,60.72 207.648,55.344 207.648,46.752 C207.648,38.352 212.64,33.12 220.704,33.12 C228.288,33.12 232.224,36.912 232.224,46.896 L232.224,47.568 Z M220.464,35.76 C218.016,35.76 216.48,38.448 216.48,44.928 L223.92,44.448 C223.92,37.728 222.768,35.76 220.464,35.76 Z M247.392,42.768 C252.576,45.072 255.264,47.136 255.264,51.936 C255.264,57.36 251.376,60.624 244.128,60.624 C240.864,60.624 237.552,60.192 234.912,59.232 L234.624,52.32 L235.44,52.32 L242.112,59.472 C242.688,59.616 243.36,59.664 243.984,59.664 C247.104,59.664 248.592,58.032 248.592,55.68 C248.592,53.568 247.392,52.752 244.224,51.312 L242.592,50.592 C237.552,48.336 234.672,45.984 234.672,41.568 C234.672,36.192 238.512,33.024 245.184,33.024 C247.92,33.024 250.992,33.36 253.296,34.032 L253.296,40.32 L252.48,40.32 L247.584,34.224 C246.912,34.032 246.144,33.984 245.424,33.984 C242.832,33.984 241.344,35.424 241.344,37.584 C241.344,39.84 242.496,40.608 245.856,42.096 L247.392,42.768 Z M239.76,58.656 C239.952,58.752 240.192,58.896 240.432,58.992 L239.76,58.656 Z" id="Headline"></path>
            <path d="M106.24,108.624 C98.272,108.624 94.912,103.296 94.912,97.44 C94.912,90 99.664,81.168 110.32,81.168 C118.288,81.168 121.696,86.496 121.648,92.304 C121.6,99.744 116.944,108.624 106.24,108.624 Z M106.24,105.936 C107.344,105.936 108.304,105.264 109.216,103.824 C111.328,100.128 112.96,91.488 112.96,87.36 C112.96,85.056 112.192,83.856 110.32,83.856 C109.216,83.856 108.256,84.528 107.344,86.016 C105.232,89.712 103.6,98.304 103.6,102.384 C103.6,104.736 104.416,105.936 106.24,105.936 Z M133.12,105.264 C131.488,113.904 127.024,118.752 120.16,118.752 C117.088,118.752 114.592,117.456 114.592,114.72 C114.592,112.848 116.032,111.504 117.808,111.504 L118.912,111.504 L120.112,115.248 C120.256,115.296 120.448,115.296 120.64,115.296 C121.744,115.296 122.752,114.288 123.472,110.112 C124.624,103.008 126.304,93.552 127.696,85.248 L124.576,85.248 L125.008,82.752 L128.32,81.792 C130.144,74.448 134.752,69.936 142.192,69.936 C145.792,69.936 148.72,71.088 148.72,73.92 C148.72,75.744 147.376,77.04 145.264,77.04 L144.16,77.04 L142.576,72.96 L142.096,72.96 C139.792,72.96 138.352,76.656 137.248,81.696 L142.384,81.696 L141.664,85.248 L136.576,85.248 C135.568,90.864 134.128,99.408 133.12,105.264 Z M167.68,108.624 C156.496,108.624 149.392,103.44 149.392,90.912 C149.392,77.568 158.224,72.816 168.064,72.816 C172.24,72.816 176.176,73.488 178.384,74.4 L178.576,83.712 L174.544,83.712 L172.288,76.704 C171.328,76.32 169.936,76.08 168.208,76.08 C162.976,76.08 160.384,79.92 160.384,90.24 C160.384,102.096 162.544,105.408 167.344,105.408 C168.592,105.408 169.552,105.216 170.224,104.928 L170.224,94.896 L167.056,93.84 L167.056,91.248 L181.744,91.248 L181.744,93.84 L179.248,94.896 L179.248,106.656 C176.656,107.664 172.288,108.624 167.68,108.624 Z M183.088,82.752 L193.696,81.216 L194.56,81.312 L194.56,88.752 L194.8,88.752 C196.144,83.04 198.352,80.928 201.328,80.928 C201.808,80.928 202.336,80.976 202.624,81.12 L202.624,89.04 C202.144,88.896 201.28,88.848 200.464,88.848 C198.064,88.848 196.288,89.088 194.752,89.712 L194.752,106.464 L198.304,107.184 L198.304,108 L183.232,108 L183.232,107.184 L185.968,106.464 L185.968,84.72 L183.088,83.568 L183.088,82.752 Z M228.496,95.568 L212.896,95.568 C213.184,100.992 215.2,103.536 220.96,103.536 C223.744,103.536 225.712,102.96 227.584,102 L227.584,104.4 C226.144,106.368 222.496,108.72 217.408,108.72 C208.48,108.72 203.92,103.344 203.92,94.752 C203.92,86.352 208.912,81.12 216.976,81.12 C224.56,81.12 228.496,84.912 228.496,94.896 L228.496,95.568 Z M216.736,83.76 C214.288,83.76 212.752,86.448 212.752,92.928 L220.192,92.448 C220.192,85.728 219.04,83.76 216.736,83.76 Z M230.464,107.184 L233.2,106.416 L233.2,84.72 L230.32,83.568 L230.32,82.752 L240.784,81.216 L241.84,81.312 L241.84,84.672 L242.128,84.672 C244.384,82.368 247.744,81.072 251.056,81.072 C255.616,81.072 257.632,83.232 257.632,88.032 L257.632,106.416 L260.368,107.184 L260.368,108 L246.448,108 L246.448,107.184 L248.896,106.56 L248.896,88.512 C248.896,85.92 247.744,84.768 245.488,84.768 C244.096,84.768 242.992,85.152 241.984,85.68 L241.984,106.56 L244.384,107.184 L244.384,108 L230.464,108 L230.464,107.184 Z M273.184,104.688 L276.592,105.936 L276.592,108 L261.616,108 L261.616,105.936 L264.4,104.688 L264.4,85.248 L261.472,85.248 L261.472,83.04 L264.4,81.696 L264.4,79.008 C264.4,72.48 269.2,70.032 274.816,70.032 C277.072,70.032 278.752,70.128 281.296,70.56 L281.296,77.712 L278.032,77.712 L276.928,72.96 C276.496,72.768 276.112,72.72 275.632,72.72 C273.952,72.72 273.184,73.68 273.184,76.608 L273.184,81.696 L278.032,81.696 L278.032,85.248 L273.184,85.248 L273.184,104.688 Z M304.192,95.568 L288.592,95.568 C288.88,100.992 290.896,103.536 296.656,103.536 C299.44,103.536 301.408,102.96 303.28,102 L303.28,104.4 C301.84,106.368 298.192,108.72 293.104,108.72 C284.176,108.72 279.616,103.344 279.616,94.752 C279.616,86.352 284.608,81.12 292.672,81.12 C300.256,81.12 304.192,84.912 304.192,94.896 L304.192,95.568 Z M292.432,83.76 C289.984,83.76 288.448,86.448 288.448,92.928 L295.888,92.448 C295.888,85.728 294.736,83.76 292.432,83.76 Z M306.016,71.616 L316.672,70.08 L317.728,70.224 L317.728,106.416 L320.464,107.184 L320.464,108 L306.208,108 L306.208,107.184 L308.944,106.416 L308.944,73.536 L306.016,72.432 L306.016,71.616 Z M321.568,71.616 L332.224,70.08 L333.28,70.224 L333.28,106.416 L336.016,107.184 L336.016,108 L321.76,108 L321.76,107.184 L324.496,106.416 L324.496,73.536 L321.568,72.432 L321.568,71.616 Z" id="of-Grenfell"></path>
        </g>
    </g>
</svg>